<?xml version="1.0" encoding="UTF-8"?>
<svg version="1.1" xmlns="http://www.w3.org/2000/svg" width="173" height="28">
<path d="M0 0 C2.475 0.495 2.475 0.495 5 1 C5 1.99 5 2.98 5 4 C6.11375 3.649375 7.2275 3.29875 8.375 2.9375 C12 2 12 2 14 3 C13.34 4.32 12.68 5.64 12 7 C12.66 7 13.32 7 14 7 C29.66666667 7 45.33333333 7 61 7 C61 11 61 11 59 14 C59.99 14.495 59.99 14.495 61 15 C61 16.65 61 18.3 61 20 C57.96570323 21.51714839 54.82398333 21.14363916 51.5 21.125 C50.81035156 21.12886719 50.12070313 21.13273437 49.41015625 21.13671875 C44.25333293 21.12666646 44.25333293 21.12666646 42 20 C42.61277612 17.03824877 43.25372522 15.61941217 45 13 C43.68 13 42.36 13 41 13 C41.061875 13.94875 41.12375 14.8975 41.1875 15.875 C41.0946875 17.421875 41.0946875 17.421875 41 19 C37.09274942 21.60483372 35.5368363 20.69205978 31 20 C28.99690671 20.31421071 26.99628664 20.6451046 25 21 C23.66666667 20.66666667 22.33333333 20.33333333 21 20 C19.989375 20.185625 18.97875 20.37125 17.9375 20.5625 C15 21 15 21 12 19 C9.99105606 19.63920943 7.99220557 20.31039038 6 21 C0.38061183 21.51085347 -3.05750028 20.42081619 -8 18 C-8.66 18.66 -9.32 19.32 -10 20 C-15.8209455 21.94441731 -22.10881864 21.24964453 -28 20 C-28.99 20.495 -28.99 20.495 -30 21 C-31.40112457 21.09503404 -32.80659524 21.13072846 -34.2109375 21.1328125 C-35.04367188 21.13410156 -35.87640625 21.13539062 -36.734375 21.13671875 C-38.04148437 21.13091797 -38.04148437 21.13091797 -39.375 21.125 C-40.23867188 21.12886719 -41.10234375 21.13273437 -41.9921875 21.13671875 C-42.8275 21.13542969 -43.6628125 21.13414063 -44.5234375 21.1328125 C-45.28575684 21.13168457 -46.04807617 21.13055664 -46.83349609 21.12939453 C-49 21 -49 21 -51.11962891 20.45654297 C-53.10990718 19.82768865 -53.10990718 19.82768865 -55.5625 20.5625 C-58 21 -58 21 -61 19 C-61.328125 16.43359375 -61.328125 16.43359375 -61.25 13.4375 C-61.23453125 12.44621094 -61.2190625 11.45492188 -61.203125 10.43359375 C-61 8 -61 8 -60 7 C-58.04469236 6.87451011 -56.08429521 6.82424637 -54.125 6.8125 C-52.52011719 6.79123047 -52.52011719 6.79123047 -50.8828125 6.76953125 C-48 7 -48 7 -45 9 C-44.67 8.34 -44.34 7.68 -44 7 C-37.66666667 7 -31.33333333 7 -25 7 C-23.98808594 6.98839844 -22.97617187 6.97679687 -21.93359375 6.96484375 C-20.77988281 6.95582031 -19.62617187 6.94679688 -18.4375 6.9375 C-17.28121094 6.92589844 -16.12492187 6.91429687 -14.93359375 6.90234375 C-12 7 -12 7 -10 8 C-9.505 9.485 -9.505 9.485 -9 11 C-8.67 10.34 -8.34 9.68 -8 9 C-7.34 9 -6.68 9 -6 9 C-6.515625 8.5875 -7.03125 8.175 -7.5625 7.75 C-8.036875 7.1725 -8.51125 6.595 -9 6 C-8.6875 3.8125 -8.6875 3.8125 -8 2 C-5.69 2.33 -3.38 2.66 -1 3 C-0.67 2.01 -0.34 1.02 0 0 Z M-1 13 C-0.34 13.66 0.32 14.32 1 15 C3.60280568 14.67958603 3.60280568 14.67958603 6 14 C6 13.67 6 13.34 6 13 C3.69 13 1.38 13 -1 13 Z M29 13 C29.34786708 14.97536745 29.34786708 14.97536745 30 17 C30.66 17.33 31.32 17.66 32 18 C32 16.35 32 14.7 32 13 C31.01 13 30.02 13 29 13 Z M-45 14 C-44 16 -44 16 -44 16 Z " fill="#BFBFBF" transform="translate(84,0)"/>
<path d="M0 0 C15.51 0 31.02 0 47 0 C47 4 47 4 45 7 C45.66 7.33 46.32 7.66 47 8 C47 9.65 47 11.3 47 13 C43.96570323 14.51714839 40.82398333 14.14363916 37.5 14.125 C36.81035156 14.12886719 36.12070313 14.13273437 35.41015625 14.13671875 C30.25333293 14.12666646 30.25333293 14.12666646 28 13 C28.61277612 10.03824877 29.25372522 8.61941217 31 6 C29.68 6 28.36 6 27 6 C27.061875 6.94875 27.12375 7.8975 27.1875 8.875 C27.0946875 10.421875 27.0946875 10.421875 27 12 C24 14 24 14 21.3125 13.625 C20.549375 13.41875 19.78625 13.2125 19 13 C19 10.36 19 7.72 19 5 C16.83125748 5.50603992 15.00032373 5.99983813 13 7 C13.33 8.32 13.66 9.64 14 11 C11.625 11.125 11.625 11.125 9 11 C8.34 10.34 7.68 9.68 7 9 C6.01 10.485 6.01 10.485 5 12 C3.35 12 1.7 12 0 12 C0 8.04 0 4.08 0 0 Z " fill="#D1D1D1" transform="translate(98,7)"/>
<path d="M0 0 C1.65 0.33 3.3 0.66 5 1 C5 1.99 5 2.98 5 4 C6.11375 3.649375 7.2275 3.29875 8.375 2.9375 C12 2 12 2 14 3 C13.34 4.32 12.68 5.64 12 7 C12.33 7.33 12.66 7.66 13 8 C13.33 8 13.66 8 14 8 C14 11.63 14 15.26 14 19 C15.65 18.67 17.3 18.34 19 18 C19.66 17.01 20.32 16.02 21 15 C21.66 15.66 22.32 16.32 23 17 C24.32 17 25.64 17 27 17 C27 15.68 27 14.36 27 13 C27.66 13 28.32 13 29 13 C29.33 12.34 29.66 11.68 30 11 C30.99 11.33 31.98 11.66 33 12 C33 14.31 33 16.62 33 19 C29.59446043 21.41225719 27.00947402 20.87131511 23.02734375 20.21875 C20.77830031 19.88303004 20.77830031 19.88303004 17.6875 20.5625 C15 21 15 21 12 19 C9.99105606 19.63920943 7.99220557 20.31039038 6 21 C0.37866266 21.51103067 -3.06944925 20.46527538 -8 18 C-9 17 -9 17 -9.125 14.0625 C-9 11 -9 11 -8 9 C-7.34 9 -6.68 9 -6 9 C-6.515625 8.5875 -7.03125 8.175 -7.5625 7.75 C-8.036875 7.1725 -8.51125 6.595 -9 6 C-8.6875 3.8125 -8.6875 3.8125 -8 2 C-5.69 2.33 -3.38 2.66 -1 3 C-0.67 2.01 -0.34 1.02 0 0 Z M-1 13 C-0.34 13.66 0.32 14.32 1 15 C3.60280568 14.67958603 3.60280568 14.67958603 6 14 C6 13.67 6 13.34 6 13 C3.69 13 1.38 13 -1 13 Z M29 13 C29.34786708 14.97536745 29.34786708 14.97536745 30 17 C30.66 17.33 31.32 17.66 32 18 C32 16.35 32 14.7 32 13 C31.01 13 30.02 13 29 13 Z " fill="#F6ECCC" transform="translate(84,0)"/>
<path d="M0 0 C9.9 0 19.8 0 30 0 C28 5 28 5 25 7 C27.97 7.495 27.97 7.495 31 8 C31 8.99 31 9.98 31 11 C25.72 11 20.44 11 15 11 C16.33332095 7.00003714 18.4957827 6.16217663 22 4 C16.555 3.505 16.555 3.505 11 3 C11 5.97 11 8.94 11 12 C9.0085944 12.38133299 7.00720923 12.71325582 5 13 C4 12 4 12 3.90234375 10.15234375 C3.93489583 8.1015625 3.96744792 6.05078125 4 4 C2.68 3.67 1.36 3.34 0 3 C0 2.01 0 1.02 0 0 Z " fill="#9C9C9C" transform="translate(113,8)"/>
<path d="M0 0 C4.29 0 8.58 0 13 0 C13 0.66 13 1.32 13 2 C10.69 2 8.38 2 6 2 C6 2.66 6 3.32 6 4 C7.65 4 9.3 4 11 4 C11 4.66 11 5.32 11 6 C11.99 6.33 12.98 6.66 14 7 C14 5.35 14 3.7 14 2 C19.78357065 -0.01167675 24.90218999 -0.22084624 31 0 C31 0.66 31 1.32 31 2 C27.37 2 23.74 2 20 2 C20 3.32 20 4.64 20 6 C21.65 6 23.3 6 25 6 C25 5.34 25 4.68 25 4 C27.31 4 29.62 4 32 4 C32 5.65 32 7.3 32 9 C29.44080818 10.27959591 27.54515972 10.16816536 24.6875 10.1875 C23.74261719 10.20167969 22.79773438 10.21585938 21.82421875 10.23046875 C18.85593118 9.98824335 16.69132835 9.24026607 14 8 C14 8.66 14 9.32 14 10 C9.38 10 4.76 10 0 10 C0 6.7 0 3.4 0 0 Z " fill="#484848" transform="translate(41,9)"/>
<path d="M0 0 C1.05832031 -0.03738281 2.11664063 -0.07476563 3.20703125 -0.11328125 C6.1875 0.3125 6.1875 0.3125 8.55859375 2.06640625 C11.12489018 5.60506439 10.47221126 8.04183112 10.1875 12.3125 C9.59582031 12.37308594 9.00414062 12.43367188 8.39453125 12.49609375 C3.318229 13.02882857 3.318229 13.02882857 -1.6875 14 C-3.8125 14.3125 -3.8125 14.3125 -6.8125 12.3125 C-7.140625 9.74609375 -7.140625 9.74609375 -7.0625 6.75 C-7.04703125 5.75871094 -7.0315625 4.76742188 -7.015625 3.74609375 C-6.63355781 -0.83136505 -4.07289959 0.09357327 0 0 Z " fill="#C3C3C3" transform="translate(29.8125,6.6875)"/>
<path d="M0 0 C-0.33 0.99 -0.66 1.98 -1 3 C0.32 3.66 1.64 4.32 3 5 C3.25 7.3125 3.25 7.3125 3 10 C0.79735475 12.17176705 -0.57352849 12.94167375 -3.65625 13.36328125 C-4.5946875 13.34652344 -5.533125 13.32976563 -6.5 13.3125 C-7.4384375 13.30863281 -8.376875 13.30476563 -9.34375 13.30078125 C-12.02087334 12.9976364 -13.69965635 12.36176004 -16 11 C-16.25 8.1875 -16.25 8.1875 -16 5 C-14 3.125 -14 3.125 -12 2 C-12.33 1.34 -12.66 0.68 -13 0 C-8.38926889 -1.29676812 -4.66159911 -0.71109139 0 0 Z M-10 7 C-9.34 7.66 -8.68 8.32 -8 9 C-5.39719432 8.67958603 -5.39719432 8.67958603 -3 8 C-3 7.67 -3 7.34 -3 7 C-5.31 7 -7.62 7 -10 7 Z " fill="#EDCE67" transform="translate(93,6)"/>
<path d="M0 0 C4.29 0 8.58 0 13 0 C13.66 1.32 14.32 2.64 15 4 C14.01 4.495 14.01 4.495 13 5 C13.33 6.32 13.66 7.64 14 9 C11.625 9.125 11.625 9.125 9 9 C8.34 8.34 7.68 7.68 7 7 C6.01 8.485 6.01 8.485 5 10 C3.35 10 1.7 10 0 10 C0 6.7 0 3.4 0 0 Z " fill="#414142" transform="translate(98,9)"/>
<path d="M0 0 C5.28 0 10.56 0 16 0 C15.67 2.97 15.34 5.94 15 9 C12.69 9 10.38 9 8 9 C9.32 8.67 10.64 8.34 12 8 C12 7.34 12 6.68 12 6 C10.35 6 8.7 6 7 6 C7 5.34 7 4.68 7 4 C9.31 4 11.62 4 14 4 C14 3.34 14 2.68 14 2 C9.71 2 5.42 2 1 2 C1 5.3 1 8.6 1 12 C5.62 12 10.24 12 15 12 C15.33 11.34 15.66 10.68 16 10 C16 10.99 16 11.98 16 13 C12.4639604 14.7680198 8.39428745 14.18464913 4.5 14.1875 C3.61957031 14.19974609 2.73914062 14.21199219 1.83203125 14.22460938 C0.99027344 14.22654297 0.14851563 14.22847656 -0.71875 14.23046875 C-1.49154297 14.23457764 -2.26433594 14.23868652 -3.06054688 14.24291992 C-5 14 -5 14 -7 12 C-4.69 12 -2.38 12 0 12 C-0.2784375 10.700625 -0.2784375 10.700625 -0.5625 9.375 C-1 6 -1 6 0 0 Z " fill="#CECECE" transform="translate(40,7)"/>
<path d="M0 0 C4.62 0 9.24 0 14 0 C11 5 11 5 9 6 C11.97 6.495 11.97 6.495 15 7 C15 7.99 15 8.98 15 10 C9.72 10 4.44 10 -1 10 C0.33332095 6.00003714 2.4957827 5.16217663 6 3 C3.03 2.505 3.03 2.505 0 2 C0 1.34 0 0.68 0 0 Z " fill="#3E3E3E" transform="translate(129,9)"/>
<path d="M0 0 C3.96 0 7.92 0 12 0 C12.33 1.65 12.66 3.3 13 5 C12.34 5 11.68 5 11 5 C11 5.66 11 6.32 11 7 C12.32 7.33 13.64 7.66 15 8 C15 8.66 15 9.32 15 10 C12.66705225 10.04241723 10.33297433 10.04092937 8 10 C7.67 9.67 7.34 9.34 7 9 C7.28730055 6.66055264 7.61936779 4.3260857 8 2 C6.68 2 5.36 2 4 2 C4 4.31 4 6.62 4 9 C2.68 9 1.36 9 0 9 C0 6.03 0 3.06 0 0 Z " fill="#333333" transform="translate(25,9)"/>
<path d="M0 0 C1.32 0.33 2.64 0.66 4 1 C4 3.31 4 5.62 4 8 C0.59446043 10.41225719 -1.99052598 9.87131511 -5.97265625 9.21875 C-8.22169969 8.88303004 -8.22169969 8.88303004 -11.3125 9.5625 C-14 10 -14 10 -17 8 C-20.63939932 8.31730524 -20.63939932 8.31730524 -24 9 C-22 7.66666667 -20 6.33333333 -18 5 C-17.27617533 2.94074861 -17.27617533 2.94074861 -17 1 C-16.34 1 -15.68 1 -15 1 C-15 3.31 -15 5.62 -15 8 C-12.56282742 7.72965366 -12.56282742 7.72965366 -10 7 C-9.34 6.01 -8.68 5.02 -8 4 C-7.34 4.66 -6.68 5.32 -6 6 C-4.68 6 -3.36 6 -2 6 C-2 4.68 -2 3.36 -2 2 C-1.34 2 -0.68 2 0 2 C0 1.34 0 0.68 0 0 Z M0 2 C0.34786708 3.97536745 0.34786708 3.97536745 1 6 C1.66 6.33 2.32 6.66 3 7 C3 5.35 3 3.7 3 2 C2.01 2 1.02 2 0 2 Z " fill="#E7E1CF" transform="translate(113,11)"/>
<path d="M0 0 C3.96 0 7.92 0 12 0 C12 0.66 12 1.32 12 2 C9.69 2 7.38 2 5 2 C5 2.66 5 3.32 5 4 C5.99 4.33 6.98 4.66 8 5 C7.01 5 6.02 5 5 5 C5 5.99 5 6.98 5 8 C7.31 8 9.62 8 12 8 C12 8.33 12 8.66 12 9 C8.04 9 4.08 9 0 9 C0 6.03 0 3.06 0 0 Z " fill="#2A2A2A" transform="translate(42,9)"/>
<path d="M0 0 C4.29 0 8.58 0 13 0 C13 0.66 13 1.32 13 2 C11.68 2 10.36 2 9 2 C9 4.31 9 6.62 9 9 C7.35 9 5.7 9 4 9 C4 6.69 4 4.38 4 2 C2.68 1.67 1.36 1.34 0 1 C0 0.67 0 0.34 0 0 Z " fill="#202020" transform="translate(114,9)"/>
<path d="M0 0 C2.31 0 4.62 0 7 0 C7 1.65 7 3.3 7 5 C4.35541621 6.32229189 2.32238699 6.09677194 -0.625 6.0625 C-1.62789063 6.05347656 -2.63078125 6.04445313 -3.6640625 6.03515625 C-4.43492188 6.02355469 -5.20578125 6.01195312 -6 6 C-6 5.01 -6 4.02 -6 3 C-4.02 2.67 -2.04 2.34 0 2 C0 1.34 0 0.68 0 0 Z " fill="#333333" transform="translate(66,13)"/>
<path d="M0 0 C0.33 0 0.66 0 1 0 C1 2.97 1 5.94 1 9 C2.32 9 3.64 9 5 9 C5 6.69 5 4.38 5 2 C6.32 2 7.64 2 9 2 C9 4.64 9 7.28 9 10 C5.28732913 12.33760758 4.80554252 11.9611085 0 11 C0 7.37 0 3.74 0 0 Z " fill="#8F8F8F" transform="translate(24,9)"/>
<path d="M0 0 C6.75 -0.125 6.75 -0.125 9 1 C9 2.32 9 3.64 9 5 C1.25 6.125 1.25 6.125 -1 5 C-0.67 3.35 -0.34 1.7 0 0 Z M0 2 C0.66 2.66 1.32 3.32 2 4 C4.60280568 3.67958603 4.60280568 3.67958603 7 3 C7 2.67 7 2.34 7 2 C4.69 2 2.38 2 0 2 Z " fill="#F4EBCB" transform="translate(83,11)"/>
<path d="M0 0 C3.63 0 7.26 0 11 0 C11.33 0.66 11.66 1.32 12 2 C9.69 2 7.38 2 5 2 C5 2.66 5 3.32 5 4 C5.66 4.33 6.32 4.66 7 5 C4.69 5 2.38 5 0 5 C-0.33 4.01 -0.66 3.02 -1 2 C-0.67 1.34 -0.34 0.68 0 0 Z " fill="#AFAFAF" transform="translate(61,11)"/>
<path d="M0 0 C-1.62339805 1.70884005 -3.29319053 3.37446717 -5 5 C-5.66 5 -6.32 5 -7 5 C-7.33 4.01 -7.66 3.02 -8 2 C-8.99 2 -9.98 2 -11 2 C-11 3.98 -11 5.96 -11 8 C-11.33 8 -11.66 8 -12 8 C-12 5.36 -12 2.72 -12 0 C-7.91556885 -1.53166168 -4.20544343 -0.63081652 0 0 Z " fill="#CBCBCB" transform="translate(136,11)"/>
<path d="M0 0 C-0.33 0.99 -0.66 1.98 -1 3 C-2.62418745 3.08090971 -4.24951745 3.13914995 -5.875 3.1875 C-6.77992187 3.22230469 -7.68484375 3.25710937 -8.6171875 3.29296875 C-9.79667969 3.14794922 -9.79667969 3.14794922 -11 3 C-11.66 2.01 -12.32 1.02 -13 0 C-8.38926889 -1.29676812 -4.66159911 -0.71109139 0 0 Z " fill="#F1D77F" transform="translate(93,6)"/>
<path d="M0 0 C1.65 0 3.3 0 5 0 C5.33 0.99 5.66 1.98 6 3 C5.01 3.495 5.01 3.495 4 4 C4.33 5.32 4.66 6.64 5 8 C3.35 8 1.7 8 0 8 C0 5.36 0 2.72 0 0 Z " fill="#212121" transform="translate(107,10)"/>
<path d="M0 0 C0.79921875 0.01804687 1.5984375 0.03609375 2.421875 0.0546875 C3.02515625 0.07789063 3.6284375 0.10109375 4.25 0.125 C4.25 0.455 4.25 0.785 4.25 1.125 C1.28 1.785 -1.69 2.445 -4.75 3.125 C-4.75 4.775 -4.75 6.425 -4.75 8.125 C-6.07 7.795 -7.39 7.465 -8.75 7.125 C-8.75 5.475 -8.75 3.825 -8.75 2.125 C-5.68753253 0.34090198 -3.52920727 -0.10380021 0 0 Z " fill="#EBC33E" transform="translate(85.75,8.875)"/>
<path d="M0 0 C2.92879371 0.62759865 5.36095629 1.58622659 8 3 C6.02 3 4.04 3 2 3 C2.66 4.32 3.32 5.64 4 7 C2.02 7.99 2.02 7.99 0 9 C0 8.34 0 7.68 0 7 C0.66 7 1.32 7 2 7 C1.484375 6.5875 0.96875 6.175 0.4375 5.75 C-0.036875 5.1725 -0.51125 4.595 -1 4 C-0.6875 1.8125 -0.6875 1.8125 0 0 Z " fill="#FAF6EA" transform="translate(76,2)"/>
<path d="M0 0 C0.66 0 1.32 0 2 0 C2.33 1.98 2.66 3.96 3 6 C-0.63 6 -4.26 6 -8 6 C-7.34 4.68 -6.68 3.36 -6 2 C-5.34 2.66 -4.68 3.32 -4 4 C-2.68 4 -1.36 4 0 4 C0 2.68 0 1.36 0 0 Z " fill="#949494" transform="translate(111,13)"/>
<path d="M0 0 C0.99 0 1.98 0 3 0 C3 2.64 3 5.28 3 8 C2.01 8 1.02 8 0 8 C0 5.36 0 2.72 0 0 Z " fill="#090909" transform="translate(100,10)"/>
<path d="M0 0 C0.99 0 1.98 0 3 0 C3 2.64 3 5.28 3 8 C2.01 8 1.02 8 0 8 C0 5.36 0 2.72 0 0 Z " fill="#050505" transform="translate(43,10)"/>
<path d="M0 0 C0.99 0 1.98 0 3 0 C3 2.64 3 5.28 3 8 C2.01 8 1.02 8 0 8 C0 5.36 0 2.72 0 0 Z " fill="#070707" transform="translate(26,10)"/>
<path d="M0 0 C-0.99 0.495 -0.99 0.495 -2 1 C-2 2.65 -2 4.3 -2 6 C-2.33 4.68 -2.66 3.36 -3 2 C-5.97 1.67 -8.94 1.34 -12 1 C-12 0.67 -12 0.34 -12 0 C-7.6835078 -0.76173392 -4.25566547 -1.16063604 0 0 Z " fill="#EDCC60" transform="translate(95,10)"/>
<path d="M0 0 C0.66 0 1.32 0 2 0 C2.04254356 1.99954746 2.04080783 4.00041636 2 6 C1 7 1 7 -2.0625 7.0625 C-3.5165625 7.0315625 -3.5165625 7.0315625 -5 7 C-2 5 -2 5 0 5 C0 3.35 0 1.7 0 0 Z " fill="#939495" transform="translate(73,13)"/>
<path d="M0 0 C0.33 0.99 0.66 1.98 1 3 C3.64 3 6.28 3 9 3 C9 3.33 9 3.66 9 4 C4.71 4 0.42 4 -4 4 C-2.68 2.68 -1.36 1.36 0 0 Z " fill="#0E0E0E" transform="translate(134,14)"/>
<path d="M0 0 C2.31 0 4.62 0 7 0 C5.68 0.33 4.36 0.66 3 1 C3 2.32 3 3.64 3 5 C2.01 5 1.02 5 0 5 C0 3.35 0 1.7 0 0 Z " fill="#616161" transform="translate(104,9)"/>
<path d="M0 0 C0.99 0 1.98 0 3 0 C3 1.65 3 3.3 3 5 C1.68 5.33 0.36 5.66 -1 6 C-0.67 4.02 -0.34 2.04 0 0 Z " fill="#E8BE30" transform="translate(93,11)"/>
</svg>
